<?xml version="1.0"?>
<svg xmlns="http://www.w3.org/2000/svg" viewBox="0 0 64 64" width="512" height="512"><g id="House_cleaning" data-name="House cleaning"><path d="M57,55H52V26a1,1,0,0,0-.312-.726L44.8,18.756a7,7,0,1,0-8.652-8.2l-3.464-3.28a1,1,0,0,0-1.376,0l-6.243,5.914A6.988,6.988,0,1,0,14.924,22.8l-2.612,2.473A1,1,0,0,0,12,26V55H2a1,1,0,0,0,0,2H57a1,1,0,0,0,0-2ZM43,7a5,5,0,0,1,0,10c-.137,0-.273-.009-.392-.017a5.011,5.011,0,0,1-4.56-4.345A4.2,4.2,0,0,1,38,12,5.006,5.006,0,0,1,43,7ZM20,13a5,5,0,0,1,0,10,5,5,0,0,1-5-5A5.006,5.006,0,0,1,20,13Zm8,42V45h8V55Zm10,0V44a1,1,0,0,0-1-1H27a1,1,0,0,0-1,1V55H14V26.43l2.512-2.379A6.906,6.906,0,0,0,20,25a6.988,6.988,0,0,0,6.237-10.163L32,9.377l4.155,3.933a6.984,6.984,0,0,0,5.9,5.6L50,26.43V55Z"/><path d="M62,55H60a1,1,0,0,0,0,2h2a1,1,0,0,0,0-2Z"/><path d="M50,18a1,1,0,0,0,0,2h2v2a1,1,0,0,0,2,0V20h2a1,1,0,0,0,0-2H54V16a1,1,0,0,0-2,0v2Z"/><path d="M60,20a1,1,0,0,0,0-2H59a1,1,0,0,0,0,2Z"/><path d="M6,24H7v1a1,1,0,0,0,2,0V24h1a1,1,0,0,0,0-2H9V21a1,1,0,0,0-2,0v1H6a1,1,0,0,0,0,2Z"/><path d="M20,16a2,2,0,0,1,2,2,1,1,0,0,0,2,0,4,4,0,0,0-4-4,1,1,0,0,0,0,2Z"/><path d="M43,10a2,2,0,0,1,2,2,1,1,0,0,0,2,0,4,4,0,0,0-4-4,1,1,0,0,0,0,2Z"/><path d="M32,15a4,4,0,1,0,4,4A4,4,0,0,0,32,15Zm0,6a2,2,0,1,1,2-2A2,2,0,0,1,32,21Z"/><path d="M40,20a3,3,0,1,0,3,3A3,3,0,0,0,40,20Zm0,4a1,1,0,1,1,1-1A1,1,0,0,1,40,24Z"/></g></svg>
